<?xml version="1.0" encoding="utf-8"?>
<!-- Generator: Adobe Illustrator 16.0.0, SVG Export Plug-In . SVG Version: 6.00 Build 0)  -->
<!DOCTYPE svg PUBLIC "-//W3C//DTD SVG 1.1//EN" "http://www.w3.org/Graphics/SVG/1.1/DTD/svg11.dtd">
<svg version="1.1" id="Layer_1" xmlns="http://www.w3.org/2000/svg" xmlns:xlink="http://www.w3.org/1999/xlink" x="0px" y="0px"
	 width="285.5px" height="80px" viewBox="0 0 285.5 80" enable-background="new 0 0 285.5 80" xml:space="preserve">
<g id="Logo_3_">
	<g>
		<polygon fill="#1825AA" points="70.156,44.188 70.156,51.634 71.785,51.634 71.785,49.248 72.365,48.723 72.365,48.723 
			75.275,51.634 77.602,51.634 73.585,47.616 73.585,47.616 77.37,44.188 75.275,44.188 71.785,47.35 71.785,44.188 		"/>
		<path fill="#1825AA" d="M56.363,50.005l0.764,1.629h1.861l-3.257-6.95l-0.233-0.496h-1.396l-0.232,0.496l-3.258,6.95h1.861
			l0.764-1.629H56.363z M54.8,46.67l0.909,1.939h-1.818L54.8,46.67z"/>
		<path fill="#1825AA" d="M47.006,44.188h-4.77v7.446h5.236c1.22,0,2.21-0.989,2.21-2.21c0-0.742-0.367-1.354-0.927-1.722
			c0.288-0.349,0.461-0.796,0.461-1.304C49.216,45.177,48.227,44.188,47.006,44.188z M43.865,45.584h2.792
			c0.45,0,0.814,0.364,0.814,0.814s-0.365,0.814-0.814,0.814l0,0h-2.792V45.584z M47.122,50.237h-3.257v-1.628h3.257h0
			c0.45,0,0.814,0.364,0.814,0.814C47.936,49.873,47.572,50.237,47.122,50.237z"/>
		<polygon fill="#1825AA" points="66.434,51.634 68.063,51.634 68.063,44.188 66.434,44.188 66.434,49.307 62.246,44.188 
			60.617,44.188 60.617,51.634 62.246,51.634 62.246,46.515 		"/>
		<path fill="#EB0029" d="M60.478,31.065H41.457c-0.3,1.218-0.541,2.46-0.717,3.723h16.015L60.478,31.065z"/>
		<path fill="#EB0029" d="M99.434,9.846H55.771c-1.555,1.128-3.021,2.373-4.382,3.723h52.427
			C102.454,12.218,100.989,10.974,99.434,9.846z"/>
		<path fill="#EB0029" d="M114.783,38.139H40.421c-0.03,0.616-0.046,1.237-0.046,1.861c0,0.624,0.016,1.245,0.046,1.861h55.794
			v5.585L77.602,66.06l-12.099-12.1h-22.42c5.523,13.643,18.896,23.268,34.519,23.268c20.561,0,37.228-16.668,37.228-37.228
			C114.83,39.375,114.813,38.755,114.783,38.139z"/>
		<path fill="#EB0029" d="M77.602,2.772c-5.823,0-11.334,1.338-16.244,3.723h32.488C88.937,4.111,83.426,2.772,77.602,2.772z"/>
		<path fill="#EB0029" d="M91.376,27.715h21.376c-0.445-1.273-0.957-2.517-1.532-3.723H87.654L91.376,27.715z"/>
		<path fill="#EB0029" d="M84.303,20.642h25.103c-0.79-1.295-1.657-2.538-2.595-3.723H80.58L84.303,20.642z"/>
		<path fill="#EB0029" d="M74.624,16.919H48.393c-0.938,1.185-1.805,2.427-2.595,3.723h25.103L74.624,16.919z"/>
		<path fill="#EB0029" d="M67.55,23.992H43.984c-0.576,1.207-1.087,2.45-1.532,3.723h21.375L67.55,23.992z"/>
	</g>
	<g>
		<path fill="#1825AA" d="M186.958,45.584c-8.225,0-14.891-6.667-14.891-14.891s6.666-14.892,14.891-14.892
			c4.607,0,8.725,2.094,11.456,5.38c2.46-1.901,5.069-3.617,7.81-5.125c-4.42-5.809-11.403-9.561-19.266-9.561
			c-13.364,0-24.198,10.834-24.198,24.198c0,13.363,10.834,24.197,24.198,24.197c7.863,0,14.847-3.752,19.268-9.562
			c-2.741-1.509-5.347-3.229-7.808-5.129C195.686,43.489,191.567,45.584,186.958,45.584z"/>
		<path fill="#1825AA" d="M239.499,28.799c2.051-2.269,3.3-5.276,3.3-8.576c0-7.068-5.729-12.797-12.797-12.797h-20.574
			c0.515,1.456,0.798,3.021,0.798,4.653v41.88c0,0,16.289,0,20.94,0c7.71,0,13.96-6.25,13.96-13.96
			C245.125,35.414,242.914,31.344,239.499,28.799z M219.532,16.267h8.841c2.57,0,4.653,2.084,4.653,4.653
			c0,2.57-2.083,4.654-4.653,4.654h-8.841V16.267z M229.769,45.118h-10.237V33.95h10.237c3.084,0,5.584,2.5,5.584,5.584
			C235.353,42.618,232.853,45.118,229.769,45.118z"/>
		<path fill="#1825AA" d="M148.45,27.762c-2.238-0.65-6.764-1.592-10.153-2.463c-1.886-0.485-4.446-1.818-4.446-4.611
			c0-2.03,2.094-5.583,8.376-5.467c5.112,0.094,7.905,3.367,8.142,6.158c2.876-1.2,5.863-2.182,8.944-2.93
			c-1.998-6.767-8.111-11.953-17.086-11.953c-4.827,0-8.532,1.201-11.621,3.304c-3.638,2.477-6.063,6.546-6.063,10.857
			c0,6.547,4.471,9.671,7.002,11.16c2.976,1.751,9.407,3.086,11.586,3.632c3.65,0.916,6.047,1.342,7.239,2.457
			c0.684,0.64,1.163,1.394,1.163,2.792c0,2.878-3.109,5.504-8.608,5.504c-6.91,0-9.359-3.305-9.72-6.117
			c-2.916,1.204-5.945,2.189-9.069,2.93c0.967,3.239,3.195,6.248,6.225,8.386c3.033,2.142,7.063,3.49,12.564,3.49
			c10.524,0,17.915-6.515,17.915-14.658C160.84,30.924,151.533,28.658,148.45,27.762z"/>
	</g>
	<g>
		<polygon fill="#1825AA" points="144.844,61.638 145.775,62.337 147.404,62.337 145.542,60.707 144.146,60.707 142.285,62.337 
			143.913,62.337 		"/>
		<polygon fill="#1825AA" points="233.725,62.337 232.096,60.707 230.001,60.707 232.096,62.337 		"/>
		<polygon fill="#1825AA" points="210.69,62.337 209.062,60.707 206.967,60.707 209.062,62.337 		"/>
		<polygon fill="#1825AA" points="174.859,62.337 173.229,60.707 171.135,60.707 173.229,62.337 		"/>
		<path fill="#1825AA" d="M143.681,63.267l-3.118,9.308h2.047l0.721-2.327h3.027l0.72,2.327h2.048l-3.118-9.308H143.681z
			 M143.835,68.618l1.009-3.257l1.009,3.257H143.835z"/>
		<path fill="#1825AA" d="M172.532,63.267l-3.118,9.308h2.048l0.721-2.327h3.026l0.721,2.327h2.048l-3.118-9.308H172.532z
			 M172.687,68.618l1.008-3.257l1.009,3.257H172.687z"/>
		<path fill="#1825AA" d="M208.363,63.267l-3.117,9.308h2.048l0.72-2.327h3.026l0.721,2.327h2.048l-3.118-9.308H208.363z
			 M208.518,68.618l1.008-3.257l1.01,3.257H208.518z"/>
		<polygon fill="#1825AA" points="129.72,69.084 125.765,63.267 124.136,63.267 124.136,72.574 125.998,72.574 125.998,66.757 
			129.953,72.574 131.582,72.574 131.582,63.267 129.72,63.267 		"/>
		<polygon fill="#1825AA" points="155.315,69.084 151.359,63.267 149.73,63.267 149.73,72.574 151.591,72.574 151.591,66.757 
			155.547,72.574 157.175,72.574 157.175,63.267 155.315,63.267 		"/>
		<polygon fill="#1825AA" points="184.163,69.084 180.207,63.267 178.579,63.267 178.579,72.574 180.439,72.574 180.439,66.757 
			184.395,72.574 186.024,72.574 186.024,63.267 184.163,63.267 		"/>
		<polygon fill="#1825AA" points="243.264,63.267 243.264,69.084 239.309,63.267 237.679,63.267 237.679,72.574 239.542,72.574 
			239.542,66.757 243.497,72.574 245.125,72.574 245.125,63.267 		"/>
		<path fill="#1825AA" d="M136.7,64.85c1.164,0,1.629,0.512,1.769,1.42h1.954c0-1.514-1.21-3.189-3.723-3.189
			c-2.792,0-3.955,1.816-3.955,4.375v0.931c0,2.561,1.163,4.375,3.955,4.375c2.792,0,3.723-1.893,3.723-3.394v-1.912H136.7v1.629
			h1.862v0.325c0,0.931-0.651,1.583-1.862,1.583c-1.396,0-1.962-0.978-1.962-2.606v-0.931C134.738,65.594,135.397,64.85,136.7,64.85
			z"/>
		<path fill="#1825AA" d="M191.146,64.85c1.163,0,1.629,0.512,1.768,1.42h1.955c0-1.514-1.21-3.189-3.723-3.189
			c-2.793,0-3.956,1.816-3.956,4.375v0.931c0,2.561,1.163,4.375,3.956,4.375c2.792,0,3.723-1.893,3.723-3.394v-1.912h-3.723v1.629
			h1.86v0.325c0,0.931-0.651,1.583-1.86,1.583c-1.396,0-1.964-0.978-1.964-2.606v-0.931C189.182,65.594,189.843,64.85,191.146,64.85
			z"/>
		<path fill="#1825AA" d="M223.719,64.85c1.163,0,1.629,0.512,1.769,1.42h1.954c0-1.514-1.209-3.189-3.723-3.189
			c-2.791,0-3.955,1.816-3.955,4.375v0.931c0,2.561,1.164,4.375,3.955,4.375c2.793,0,3.723-1.893,3.723-3.394v-1.912h-3.723v1.629
			h1.862v0.325c0,0.931-0.652,1.583-1.862,1.583c-1.396,0-1.962-0.978-1.962-2.606v-0.931
			C221.757,65.594,222.417,64.85,223.719,64.85z"/>
		<polygon fill="#1825AA" points="166.948,66.99 163.225,66.99 163.225,63.267 161.364,63.267 161.364,72.574 163.225,72.574 
			163.225,68.618 166.948,68.618 166.948,72.574 168.809,72.574 168.809,63.267 166.948,63.267 		"/>
		<path fill="#1825AA" d="M202.69,67.149l-1.4-0.312c-0.837-0.174-1.303-0.499-1.303-1.058c0-0.745,0.652-1.117,1.629-1.117
			c1.07,0,1.583,0.513,1.583,1.164h1.86c0-1.63-1.35-2.747-3.496-2.747c-2.041,0-3.53,0.931-3.53,2.793
			c0,1.583,1.095,2.361,2.405,2.641l1.41,0.323c0.941,0.214,1.396,0.481,1.396,1.151c0,0.723-0.604,1.189-1.768,1.189
			c-1.167,0-1.769-0.465-1.769-1.163H197.8c0,1.257,0.884,2.746,3.677,2.746c2.326,0,3.723-1.117,3.723-2.979
			C205.2,68.107,204.083,67.455,202.69,67.149z"/>
		<rect x="214.413" y="63.267" fill="#1825AA" width="1.862" height="9.308"/>
		<path fill="#1825AA" d="M232.561,63.08c-2.56,0-3.955,1.583-3.955,4.375v0.931c0,2.792,1.396,4.375,3.945,4.375
			c2.568,0,3.965-1.583,3.965-4.375v-0.931C236.516,64.663,235.12,63.08,232.561,63.08z M234.563,68.386
			c0,1.861-0.837,2.606-2.005,2.606c-1.162,0-1.998-0.745-1.998-2.606v-0.931c0-1.861,0.839-2.605,2.001-2.605
			c1.168,0,2.002,0.744,2.002,2.605V68.386z"/>
	</g>
</g>
</svg>
